<?xml version="1.0" encoding="utf-8"?>
<!-- Generator: Adobe Illustrator 24.2.0, SVG Export Plug-In . SVG Version: 6.00 Build 0)  -->
<svg version="1.1" id="레이어_1" xmlns="http://www.w3.org/2000/svg" xmlns:xlink="http://www.w3.org/1999/xlink" x="0px"
	 y="0px" viewBox="0 0 495.35 393.94" style="enable-background:new 0 0 495.35 393.94;" xml:space="preserve">
<style type="text/css">
	.st0{fill:#FFFFFF;}
</style>
<g>
	<g>
		<path class="st0" d="M55.53,161.18c0.31-1.29,0.56-2.4,0.74-3.26c-0.34-3.13-1.64-11.12-7.91-18.54
			c-5.2-6.15-11.25-8.88-14.23-9.99c1.68,2.25,3.91,5.55,6,9.83c1.44,2.96,5.81,12.55,6.38,27.91c0.56,15.02-2.94,24.06-1.87,24.34
			C46.02,191.84,51.83,176.68,55.53,161.18z"/>
		<path class="st0" d="M199.09,133.03c6,0,10.61,1.08,13.82,3.21c3.21,2.14,5.64,4.55,7.3,7.19c1.87,3.06,3,6.53,3.42,10.4
			c-5.59,0-10.72,3.42-15.38,10.25c-4.66,6.84-9.16,15.9-13.51,27.18c-4.35,11.29-8.85,24.12-13.51,38.52
			c-4.66,14.4-9.67,29.09-15.06,44.1c-5.39,15.01-11.38,29.72-18.01,44.1s-14.24,27.23-22.83,38.52
			c-8.59,11.29-18.33,20.35-29.2,27.18c-10.87,6.84-23.25,10.25-37.12,10.25c-5.8,0-12.11-1.19-18.95-3.56
			c-6.84-2.39-13.21-5.9-19.11-10.56s-10.87-10.4-14.91-17.24C2.02,355.74,0,347.97,0,339.28c0-4.14,0.52-7.77,1.55-10.87
			c0.42-1.66,0.94-3.21,1.55-4.66c5.18,5.39,10.98,9.58,17.4,12.58c6.42,3,13.77,4.5,22.06,4.5c12.01,0,22.52-3.06,31.52-9.16
			c9.01-6.11,16.88-14.12,23.6-24.07c6.72-9.93,12.69-21.22,17.86-33.86c5.18-12.62,10.04-25.47,14.59-38.52
			c-12.22,14.7-25.15,27.07-38.83,37.12c-13.67,10.04-26.81,15.78-39.45,17.24c-2.08,0.42-3.84,0.61-5.27,0.61
			c-2.9,0-5.9-0.56-9.01-1.71c-3.11-1.13-6.01-3.05-8.69-5.74c-2.69-2.69-4.87-6.26-6.53-10.72c-1.66-4.45-2.48-9.88-2.48-16.3
			c0-6.21,1.29-13.25,3.89-21.12c2.58-7.87,5.79-16.16,9.63-24.85c3.84-8.69,8.03-17.7,12.58-27.02
			c4.55-9.32,8.74-18.64,12.58-27.96c3.82-9.32,7.03-18.43,9.63-27.33c2.58-8.9,3.89-17.4,3.89-25.47c0-13.04-4.3-23.49-12.88-31.38
			c-8.59-7.87-20.35-11.8-35.25-11.8c-3.31,0-6.32,0.21-9.01,0.63c-2.69,0.42-5.18,0.82-7.45,1.24c2.9-7.66,5-12.42,10.31-20.32
			c4.77-6.98,8.19-11.94,16.68-18.64c9-6.77,17.11-12,37.02-12c12.22,0,21.97,2.46,30.89,5.87c8.44,3.23,21.89,14.44,26.55,22.21
			c4.66,7.77,8.51,15.82,10.38,24.51c1.87,8.69,2.86,13.67,2.86,20.7c0,10.56-1.64,21.36-6.09,33.68
			c-4.45,12.32-19.45,37.33-27.19,50.05c-6.11,12.32-12.43,24.19-18.95,35.57c-6.53,11.38-11.75,21.49-15.69,30.28
			c-3.93,8.8-6.01,15.83-6.21,21.12c-0.21,5.27,2.9,7.92,9.32,7.92c2.69,0,6.68-1.9,11.96-5.72c5.27-3.82,11.08-8.93,17.4-15.33
			s12.83-13.83,19.57-22.31c6.72-8.46,13.09-17.35,19.11-26.65c3.31-8.26,6.79-15.96,10.4-23.09c3.63-7.13,7.56-13.32,11.8-18.59
			c4.24-5.27,8.95-9.4,14.14-12.4C186.87,134.53,192.67,133.03,199.09,133.03z"/>
		<path class="st0" d="M295.38,145.46c0,4.56-1.14,9.11-3.42,13.67c-2.29,4.56-4.97,8.76-8.08,12.58c-3.11,3.84-6.37,7.3-9.79,10.4
			c-3.42,3.1-6.16,5.59-8.22,7.45c-0.42-1.66-0.58-3.31-0.47-4.97c0.1-1.66,0.16-3.21,0.16-4.66s0.1-2.9,0.31-4.35
			c-1.03,2.08-1.82,4.19-2.34,6.37c-0.52,2.18-0.98,4.3-1.4,6.37c-0.42,2.29-0.61,4.66-0.61,7.14c0,4.14,0.61,8.43,1.85,12.88
			c1.24,4.45,2.53,9.22,3.89,14.29c1.34,5.08,2.64,10.51,3.89,16.3c1.24,5.8,1.87,12.11,1.87,18.95c0,8.08-1.61,15.43-4.82,22.06
			c-3.21,6.63-7.48,12.38-12.82,17.24c-5.32,4.87-11.54,8.59-18.64,11.17s-14.48,3.89-22.14,3.89c-9.93,0-17.86-1.82-23.77-5.43
			s-10.14-8.17-12.74-13.67c-2.58-5.48-3.84-11.38-3.72-17.7c0.11-6.32,1.14-12.22,3.11-17.7c1.97-5.48,4.61-10.04,7.92-13.67
			c3.32-3.63,6.84-5.43,10.56-5.43c1.03,0,1.4,0.98,1.08,2.95c-0.31,1.97-0.26,4.19,0.16,6.68c0.42,2.48,1.71,4.71,3.89,6.68
			c2.18,1.97,6.37,2.95,12.58,2.95c4.14,0,7.5-0.68,10.09-2.02c2.58-1.34,4.66-3.16,6.21-5.43c1.55-2.27,2.58-4.87,3.11-7.77
			c0.52-2.9,0.77-5.9,0.77-9.01c-0.21-7.03-1.76-15.22-4.66-24.54l-1.24,2.79c-1.24,2.08-2.64,3.32-4.19,3.72
			c-1.55,0.42-2.9,0.26-4.03-0.47c-1.14-0.73-1.97-1.81-2.48-3.26c-0.52-1.45-0.26-3,0.77-4.66c1.03-1.66,2.32-3.84,3.89-6.53
			c1.55-2.69,3.05-5.43,4.5-8.22c1.45-2.79,2.74-5.27,3.89-7.45c1.13-2.18,1.81-3.58,2.02-4.19c0.82-3.11,2.32-7.35,4.47-12.74
			s5.13-10.72,8.9-15.99c3.79-5.27,8.51-9.88,14.17-13.82c5.66-3.93,12.53-5.9,20.61-5.9c5.59,0,9.48,1.4,11.64,4.19
			C294.28,139.4,295.38,142.35,295.38,145.46z"/>
		<path class="st0" d="M454.1,207.26c1.45-2.69,2.95-4.4,4.5-5.13c1.55-0.73,2.95-0.77,4.19-0.16c1.24,0.61,2.02,1.82,2.34,3.58
			c0.31,1.76-0.05,3.89-1.08,6.37c-2.48,5.39-5.48,11.59-9.01,18.64c-3.51,7.05-7.45,14.29-11.8,21.73
			c-4.35,7.45-9.01,14.7-13.98,21.73c-4.97,7.05-10.21,13.35-15.69,18.95c-5.48,5.59-11.14,10.09-16.93,13.51
			c-5.8,3.42-11.71,5.13-17.7,5.13c-5.39,0-9.95-1.29-13.67-3.89c-3.72-2.6-6.72-5.79-9.01-9.63c-2.29-3.84-3.93-8.03-4.97-12.58
			c-1.03-4.55-1.55-8.8-1.55-12.74c0-5.59,0.94-11.85,2.79-18.78c1.87-6.93,4.14-13.98,6.84-21.12c2.69-7.14,5.53-14.03,8.55-20.65
			c3-6.63,5.64-12.58,7.92-17.86c2.27-5.27,3.89-9.48,4.82-12.58c0.94-3.11,0.68-4.66-0.77-4.66c-2.9,0-6.72,2.02-11.5,6.06
			c-4.77,4.03-9.58,9.11-14.45,15.22c-4.87,6.11-9.48,12.74-13.82,19.88c-4.34,7.14-7.45,13.93-9.32,20.35
			c-2.29,8.69-4.03,16.72-5.27,24.07c-1.24,7.35-1.87,13.82-1.87,19.41c0,4.14,0.35,7.45,1.08,9.93c0.73,2.48,1.6,4.45,2.64,5.9
			c1.24,2.29,1.03,4.03-0.61,5.27c-1.66,1.24-3.84,2.43-6.53,3.58c-2.69,1.14-6.11,1.71-10.25,1.71c-3.72,0-7.4-0.82-11.03-2.48
			c-3.63-1.66-6.84-4.14-9.63-7.45c-2.79-3.31-5.01-7.45-6.68-12.43c-1.66-4.97-2.48-10.77-2.48-17.4c0-9.74,2.18-21.59,6.53-35.57
			c4.35-13.98,9.88-28.57,16.62-43.79c6.74-15.22,14.14-30.33,22.2-45.36c8.08-15.01,15.83-28.52,23.3-40.53
			c7.45-12.01,14.14-21.73,20.04-29.2c5.9-7.47,9.98-11.19,12.27-11.19c5.59,0,8.38,2.79,8.38,8.38c0,0.82-1.24,4.45-3.72,10.87
			c-2.48,6.42-5.69,14.66-9.63,24.68c-3.93,10.04-8.34,21.43-13.21,34.17c-4.87,12.74-9.58,25.83-14.14,39.29
			c1.87-1.87,4.82-4.45,8.85-7.77c4.03-3.31,8.59-6.63,13.67-9.93c5.08-3.31,10.56-6.16,16.46-8.55s11.85-3.58,17.86-3.58
			c5.39,0,10.3,1.87,14.75,5.59c4.45,3.72,6.68,8.59,6.68,14.59c0,3.11-1.08,7.4-3.26,12.88c-2.18,5.48-4.77,11.38-7.77,17.7
			c-3,6.32-6.01,12.74-9.01,19.25c-3,6.53-5.43,12.43-7.3,17.7c-1.87,5.27-2.69,9.63-2.48,13.04c0.21,3.42,2.06,5.13,5.59,5.13
			c3.11,0,6.68-1.08,10.72-3.26c4.03-2.18,8.34-5.34,12.88-9.48c4.55-4.14,9.21-9.32,13.98-15.53
			C445.18,222.17,449.75,215.14,454.1,207.26z"/>
		<path class="st0" d="M71,91.54c0,0,1.44-26.14-8.39-29.79c0,0,11.5,1.21,22.2,11.27c0,0-12.44-35.93-34.55-40.6
			c0,0,34.86-8.23,55.8,18.24c0,0-0.7-18.45-12.38-29.74c0,0,22.4,2.87,40.17,25.98c0,0-6.48-26.73-34.4-40.6
			C75.81-5.46,29.57-7.33,7.15,60.76C7.15,60.76,56.03,46.6,71,91.54z"/>
	</g>
	<g>
		<path class="st0" d="M468.53,197.2c-1.48,0-2.45-1.03-2.9-3.08c-0.45-2.05-0.52-4.64-0.18-7.77c0.34-3.13,1.05-6.5,2.13-10.08
			s2.45-6.95,4.1-10.08c1.64-3.13,3.53-5.72,5.64-7.77c2.11-2.05,4.35-3.08,6.74-3.08c4.9,0,8.11,1.03,9.66,3.08
			c1.53,2.05,1.98,4.64,1.37,7.77c-0.63,3.13-2.11,6.5-4.43,10.08c-2.34,3.58-4.9,6.95-7.69,10.08c-2.79,3.13-5.53,5.72-8.19,7.77
			C472.09,196.19,470.01,197.2,468.53,197.2z"/>
	</g>
</g>
</svg>
