<?xml version="1.0" encoding="utf-8"?>
<!-- Generator: Adobe Illustrator 24.2.0, SVG Export Plug-In . SVG Version: 6.00 Build 0)  -->
<svg version="1.1" id="레이어_1" xmlns="http://www.w3.org/2000/svg" xmlns:xlink="http://www.w3.org/1999/xlink" x="0px"
	 y="0px" viewBox="0 0 498.35 399.35" style="enable-background:new 0 0 498.35 399.35;" xml:space="preserve">
<style type="text/css">
	.st0{fill:#D75B37;stroke:#E27462;stroke-width:3;stroke-miterlimit:10;}
	.st1{fill:#D75B37;stroke:#ED7864;stroke-width:3;stroke-miterlimit:10;}
	.st2{fill:#E27462;}
	.st3{fill:#C34F29;}
	.st4{fill:#D75B37;}
	.st5{fill:#FFFFFF;}
	.st6{fill:#070001;}
</style>
<g>
	<path class="st0" d="M298.38,147.88c0,4.56-1.14,9.11-3.42,13.67c-2.29,4.56-4.97,8.76-8.08,12.58c-3.11,3.84-6.37,7.3-9.79,10.4
		c-3.42,3.1-6.16,5.59-8.22,7.45c-0.42-1.66-0.58-3.31-0.47-4.97c0.1-1.66,0.16-3.21,0.16-4.66s0.1-2.9,0.31-4.35
		c-1.03,2.08-1.82,4.19-2.34,6.37s-0.98,4.3-1.4,6.37c-0.42,2.29-0.61,4.66-0.61,7.14c0,4.14,0.61,8.43,1.85,12.88
		c1.24,4.45,2.53,9.22,3.89,14.29c1.34,5.08,2.64,10.51,3.89,16.3c1.24,5.8,1.87,12.11,1.87,18.95c0,8.08-1.61,15.43-4.82,22.06
		c-3.21,6.63-7.48,12.38-12.82,17.24c-5.32,4.87-11.54,8.59-18.64,11.17s-14.48,3.89-22.14,3.89c-9.93,0-17.86-1.82-23.77-5.43
		s-10.14-8.17-12.74-13.67c-2.58-5.48-3.84-11.38-3.72-17.7c0.11-6.32,1.14-12.22,3.11-17.7c1.97-5.48,4.61-10.04,7.92-13.67
		c3.32-3.63,6.84-5.43,10.56-5.43c1.03,0,1.4,0.98,1.08,2.95c-0.31,1.97-0.26,4.19,0.16,6.68c0.42,2.48,1.71,4.71,3.89,6.68
		c2.18,1.97,6.37,2.95,12.58,2.95c4.14,0,7.5-0.68,10.09-2.02c2.58-1.34,4.66-3.16,6.21-5.43c1.55-2.27,2.58-4.87,3.11-7.77
		c0.52-2.9,0.77-5.9,0.77-9.01c-0.21-7.03-1.76-15.22-4.66-24.54l-1.24,2.79c-1.24,2.08-2.64,3.32-4.19,3.72
		c-1.55,0.42-2.9,0.26-4.03-0.47c-1.14-0.73-1.97-1.81-2.48-3.26c-0.52-1.45-0.26-3,0.77-4.66s2.32-3.84,3.89-6.53
		c1.55-2.69,3.05-5.43,4.5-8.22c1.45-2.79,2.74-5.27,3.89-7.45c1.13-2.18,1.81-3.58,2.02-4.19c0.82-3.11,2.32-7.35,4.47-12.74
		s5.13-10.72,8.9-15.99c3.79-5.27,8.51-9.88,14.17-13.82c5.66-3.93,12.53-5.9,20.61-5.9c5.59,0,9.48,1.4,11.64,4.19
		C297.28,141.82,298.38,144.77,298.38,147.88z"/>
	<path class="st1" d="M457.1,209.68c1.45-2.69,2.95-4.4,4.5-5.13c1.55-0.73,2.95-0.77,4.19-0.16s2.02,1.82,2.34,3.58
		c0.31,1.76-0.05,3.89-1.08,6.37c-2.48,5.39-5.48,11.59-9.01,18.64c-3.51,7.05-7.45,14.29-11.8,21.73
		c-4.35,7.45-9.01,14.7-13.98,21.73c-4.97,7.05-10.21,13.35-15.69,18.95c-5.48,5.59-11.14,10.09-16.93,13.51
		c-5.8,3.42-11.71,5.13-17.7,5.13c-5.39,0-9.95-1.29-13.67-3.89s-6.72-5.79-9.01-9.63s-3.93-8.03-4.97-12.58
		c-1.03-4.55-1.55-8.8-1.55-12.74c0-5.59,0.94-11.85,2.79-18.78c1.87-6.93,4.14-13.98,6.84-21.12c2.69-7.14,5.53-14.03,8.55-20.65
		c3-6.63,5.64-12.58,7.92-17.86c2.27-5.27,3.89-9.48,4.82-12.58c0.94-3.11,0.68-4.66-0.77-4.66c-2.9,0-6.72,2.02-11.5,6.06
		c-4.77,4.03-9.58,9.11-14.45,15.22c-4.87,6.11-9.48,12.74-13.82,19.88s-7.45,13.93-9.32,20.35c-2.29,8.69-4.03,16.72-5.27,24.07
		s-1.87,13.82-1.87,19.41c0,4.14,0.35,7.45,1.08,9.93c0.73,2.48,1.6,4.45,2.64,5.9c1.24,2.29,1.03,4.03-0.61,5.27
		c-1.66,1.24-3.84,2.43-6.53,3.58c-2.69,1.14-6.11,1.71-10.25,1.71c-3.72,0-7.4-0.82-11.03-2.48s-6.84-4.14-9.63-7.45
		s-5.01-7.45-6.68-12.43c-1.66-4.97-2.48-10.77-2.48-17.4c0-9.74,2.18-21.59,6.53-35.57c4.35-13.98,9.88-28.57,16.62-43.79
		s14.14-30.33,22.2-45.36c8.08-15.01,15.83-28.52,23.3-40.53c7.45-12.01,14.14-21.73,20.04-29.2s9.98-11.19,12.27-11.19
		c5.59,0,8.38,2.79,8.38,8.38c0,0.82-1.24,4.45-3.72,10.87c-2.48,6.42-5.69,14.66-9.63,24.68c-3.93,10.04-8.34,21.43-13.21,34.17
		c-4.87,12.74-9.58,25.83-14.14,39.29c1.87-1.87,4.82-4.45,8.85-7.77c4.03-3.31,8.59-6.63,13.67-9.93
		c5.08-3.31,10.56-6.16,16.46-8.55s11.85-3.58,17.86-3.58c5.39,0,10.3,1.87,14.75,5.59s6.68,8.59,6.68,14.59
		c0,3.11-1.08,7.4-3.26,12.88c-2.18,5.48-4.77,11.38-7.77,17.7c-3,6.32-6.01,12.74-9.01,19.25c-3,6.53-5.43,12.43-7.3,17.7
		c-1.87,5.27-2.69,9.63-2.48,13.04c0.21,3.42,2.06,5.13,5.59,5.13c3.11,0,6.68-1.08,10.72-3.26c4.03-2.18,8.34-5.34,12.88-9.48
		c4.55-4.14,9.21-9.32,13.98-15.53C448.18,224.59,452.75,217.56,457.1,209.68z"/>
	<path class="st2" d="M47.3,196.9l-0.43-0.11c-3.06-0.8-2.53-3.77-1.92-7.21c0.71-4.04,1.91-10.79,1.57-19.92
		c-0.37-9.92-2.53-19.41-6.08-26.71c-1.6-3.27-3.52-6.42-5.71-9.35l-6.09-8.16l9.54,3.55c4.19,1.56,10.27,4.71,15.47,10.87
		c6.4,7.58,8.14,15.88,8.6,20.15l0.05,0.47l-0.1,0.46c-0.18,0.88-0.44,2.02-0.76,3.35c-1.7,7.1-4.01,14.84-6.34,21.22
		c-3.88,10.6-5.39,11.38-7.41,11.38C47.69,196.9,47.3,196.9,47.3,196.9z"/>
	<path class="st3" d="M58.53,163.6c0.31-1.29,0.56-2.4,0.74-3.26c-0.34-3.13-1.64-11.12-7.91-18.54c-5.2-6.15-11.25-8.88-14.23-9.99
		c1.68,2.25,3.91,5.55,6,9.83c1.44,2.96,5.81,12.55,6.38,27.91c0.56,15.02-2.94,24.06-1.87,24.34
		C49.02,194.26,54.83,179.1,58.53,163.6z"/>
	<path class="st2" d="M62.01,399.35c-6.09,0-12.8-1.25-19.93-3.73c-7.15-2.5-13.88-6.21-19.99-11.04
		c-6.17-4.88-11.43-10.95-15.63-18.07C2.17,359.24,0,350.89,0,341.7c0-4.39,0.56-8.33,1.67-11.71c0.44-1.73,1-3.41,1.67-4.98
		l1.77-4.2l3.16,3.29c4.89,5.09,10.45,9.11,16.51,11.94c5.99,2.8,12.98,4.22,20.79,4.22c11.34,0,21.38-2.91,29.84-8.64
		c8.67-5.88,16.34-13.71,22.8-23.26c6.61-9.77,12.52-20.98,17.57-33.32c3.17-7.72,6.26-15.64,9.24-23.67
		c-9.27,9.84-18.95,18.49-28.93,25.82c-13.98,10.27-27.69,16.25-40.76,17.79c-2.15,0.43-4.08,0.64-5.74,0.64
		c-3.27,0-6.65-0.64-10.05-1.9c-3.49-1.27-6.79-3.44-9.77-6.44c-2.99-2.99-5.42-6.95-7.22-11.79c-1.77-4.75-2.67-10.58-2.67-17.35
		c0-6.52,1.36-13.94,4.04-22.06c2.6-7.95,5.88-16.4,9.73-25.12c3.88-8.79,8.13-17.92,12.63-27.12c4.48-9.18,8.69-18.53,12.5-27.79
		c3.76-9.18,6.97-18.27,9.52-27.03c2.5-8.63,3.77-16.92,3.77-24.63c0-12.26-3.9-21.8-11.91-29.17c-7.97-7.3-19.15-11.01-33.22-11.01
		c-3.15,0-6.02,0.2-8.55,0.59c-2.88,0.45-5.23,0.83-7.37,1.23L5.79,67l1.89-4.98c3.07-8.11,5.1-13.11,9.98-22.36
		c3.37-6.37,6.09-11.17,14.13-20.09C40.17,10.28,55.45,0,74.34,0c10.98,0,20.52,0.86,30.98,6.64c6.78,3.74,21.37,13.25,29.28,30.3
		c4.59,9.89,8.93,19.15,10.65,27.15c1.87,8.69,2.93,13.96,2.93,21.33c0,11.83-1.99,22.86-6.27,34.7
		c-3.27,9.06-12.23,25.57-27.38,50.48c-6.12,12.33-12.5,24.31-18.98,35.61c-6.37,11.11-11.61,21.2-15.56,30.02
		c-3.76,8.43-5.77,15.16-5.95,20.01c-0.09,2.3,0.66,3.08,0.91,3.34c0.92,0.96,2.79,1.47,5.41,1.47c1.15,0,4.01-0.67,10.2-5.15
		c5.14-3.73,10.87-8.78,17.02-15.01c6.18-6.26,12.69-13.68,19.36-22.07c6.55-8.24,12.87-17.05,18.78-26.17
		c3.25-8.1,6.75-15.85,10.4-23.06c3.71-7.28,7.79-13.71,12.14-19.12c4.45-5.53,9.49-9.94,14.98-13.12
		c5.57-3.24,11.91-4.89,18.85-4.89c6.56,0,11.77,1.25,15.48,3.71c3.54,2.36,6.29,5.08,8.18,8.09c2.1,3.44,3.39,7.35,3.86,11.67
		l0.36,3.32h-3.34c-4.51,0-8.85,3.01-12.9,8.94c-4.5,6.61-8.94,15.54-13.19,26.57c-4.31,11.18-8.84,24.09-13.46,38.36
		c-4.7,14.53-9.78,29.4-15.09,44.19c-5.46,15.19-11.55,30.11-18.11,44.34c-6.7,14.54-14.5,27.68-23.17,39.08
		c-8.76,11.52-18.85,20.91-29.99,27.9C89.43,395.75,76.41,399.35,62.01,399.35z"/>
	<path class="st3" d="M60,165.96c0.31-1.29-0.18-2.24,0-3.1c-0.34-3.13-2.37-13.63-8.64-21.05c-5.2-6.15-11.25-8.88-14.23-9.99
		c1.68,2.25,3.91,5.55,6,9.83c1.44,2.96,5.81,12.55,6.38,27.91c0.56,15.02-2.94,24.06-1.87,24.34
		C49.02,194.26,56.3,181.46,60,165.96z"/>
	<path class="st4" d="M202.09,135.45c6,0,10.61,1.08,13.82,3.21c3.21,2.14,5.64,4.55,7.3,7.19c1.87,3.06,3,6.53,3.42,10.4
		c-5.59,0-10.72,3.42-15.38,10.25c-4.66,6.84-9.16,15.9-13.51,27.18c-4.35,11.29-8.85,24.12-13.51,38.52
		c-4.66,14.4-9.67,29.09-15.06,44.1c-5.39,15.01-11.38,29.72-18.01,44.1s-14.24,27.23-22.83,38.52
		c-8.59,11.29-18.33,20.35-29.2,27.18c-10.87,6.84-23.25,10.25-37.12,10.25c-5.8,0-12.11-1.19-18.95-3.56
		c-6.84-2.39-13.21-5.9-19.11-10.56s-10.87-10.4-14.91-17.24C5.02,358.16,3,350.39,3,341.7c0-4.14,0.52-7.77,1.55-10.87
		c0.42-1.66,0.94-3.21,1.55-4.66c5.18,5.39,10.98,9.58,17.4,12.58s13.77,4.5,22.06,4.5c12.01,0,22.52-3.06,31.52-9.16
		c9.01-6.11,16.88-14.12,23.6-24.07c6.72-9.93,12.69-21.22,17.86-33.86c5.18-12.62,10.04-25.47,14.59-38.52
		c-12.22,14.7-25.15,27.07-38.83,37.12C80.63,284.8,67.49,290.54,54.85,292c-2.08,0.42-3.84,0.61-5.27,0.61
		c-2.9,0-5.9-0.56-9.01-1.71c-3.11-1.13-6.01-3.05-8.69-5.74c-2.69-2.69-4.87-6.26-6.53-10.72c-1.66-4.45-2.48-9.88-2.48-16.3
		c0-6.21,1.29-13.25,3.89-21.12c2.58-7.87,5.79-16.16,9.63-24.85s8.03-17.7,12.58-27.02s8.74-18.64,12.58-27.96
		c3.82-9.32,7.03-18.43,9.63-27.33c2.58-8.9,3.89-17.4,3.89-25.47c0-13.04-4.3-23.49-12.88-31.38c-8.59-7.87-20.35-11.8-35.25-11.8
		c-3.31,0-6.32,0.21-9.01,0.63c-2.69,0.42-5.18,0.82-7.45,1.24c2.9-7.66,5-12.42,10.31-20.32c4.77-6.98,8.19-11.94,16.68-18.64
		c9-6.77,17.11-12,37.02-12c12.22,0,21.97,2.46,30.89,5.87c8.44,3.23,21.89,14.44,26.55,22.21s8.51,15.82,10.38,24.51
		c1.87,8.69,2.86,13.67,2.86,20.7c0,10.56-1.64,21.36-6.09,33.68s-19.45,37.33-27.19,50.05c-6.11,12.32-12.43,24.19-18.95,35.57
		c-6.53,11.38-11.75,21.49-15.69,30.28c-3.93,8.8-6.01,15.83-6.21,21.12c-0.21,5.27,2.9,7.92,9.32,7.92c2.69,0,6.68-1.9,11.96-5.72
		c5.27-3.82,11.08-8.93,17.4-15.33s12.83-13.83,19.57-22.31c6.72-8.46,13.09-17.35,19.11-26.65c3.31-8.26,6.79-15.96,10.4-23.09
		c3.63-7.13,7.56-13.32,11.8-18.59s8.95-9.4,14.14-12.4C189.87,136.95,195.67,135.45,202.09,135.45z"/>
	<path class="st5" d="M74,93.96c0,0,1.44-26.14-8.39-29.79c0,0,11.5,1.21,22.2,11.27c0,0-12.44-35.93-34.55-40.6
		c0,0,34.86-8.23,55.8,18.24c0,0-0.7-18.45-12.38-29.74c0,0,22.4,2.87,40.17,25.98c0,0-6.48-26.73-34.4-40.6
		C78.81-3.04,32.57-4.91,10.15,63.18C10.15,63.18,59.03,49.02,74,93.96z"/>
	<g>
		<path class="st6" d="M471.53,199.62c-1.48,0-2.45-1.03-2.9-3.08c-0.45-2.05-0.52-4.64-0.18-7.77s1.05-6.5,2.13-10.08
			s2.45-6.95,4.1-10.08c1.64-3.13,3.53-5.72,5.64-7.77c2.11-2.05,4.35-3.08,6.74-3.08c4.9,0,8.11,1.03,9.66,3.08
			c1.53,2.05,1.98,4.64,1.37,7.77c-0.63,3.13-2.11,6.5-4.43,10.08c-2.34,3.58-4.9,6.95-7.69,10.08s-5.53,5.72-8.19,7.77
			C475.09,198.61,473.01,199.62,471.53,199.62z"/>
	</g>
</g>
</svg>
