<svg width="1898" height="1127" viewBox="0 0 1898 1127" fill="none" xmlns="http://www.w3.org/2000/svg">
<path d="M599.4 341.337C617.457 341.337 631.34 344.59 641 350.998C650.66 357.455 657.99 364.688 662.99 372.65C668.621 381.874 672.019 392.312 673.281 403.963C656.437 403.963 641 414.255 626.972 434.84C612.943 455.424 599.4 482.707 586.293 516.69C573.187 550.674 559.643 589.318 545.615 632.67C531.586 676.023 516.489 720.25 500.276 765.448C484.063 810.645 466.006 854.921 446.055 898.225C426.104 941.529 403.192 980.222 377.319 1014.2C351.446 1048.19 322.126 1075.47 289.409 1096.06C256.691 1116.64 219.411 1126.93 177.665 1126.93C160.189 1126.93 141.209 1123.34 120.627 1116.2C100.046 1109.02 80.8714 1098.43 63.1049 1084.4C45.3385 1070.37 30.3874 1053.09 18.2033 1032.51C6.06778 1011.92 0 988.523 0 962.356C0 949.879 1.55335 938.956 4.66006 929.635C5.92215 924.635 7.4755 919.974 9.32011 915.605C24.9022 931.82 42.3774 944.442 61.6972 953.472C81.017 962.502 103.152 967.017 128.103 967.017C164.267 967.017 195.916 957.793 223.003 939.442C250.138 921.042 273.827 896.914 294.069 866.96C314.311 837.055 332.272 803.072 347.854 765.011C363.436 726.998 378.096 688.306 391.784 649.031C354.989 693.306 316.059 730.542 274.895 760.787C233.731 791.032 194.169 808.315 156.112 812.684C149.85 813.946 144.559 814.529 140.239 814.529C131.501 814.529 122.472 812.83 113.103 809.383C103.735 805.985 94.9972 800.208 86.9392 792.1C78.8326 783.993 72.2794 773.264 67.2795 759.816C62.2797 746.417 59.804 730.057 59.804 710.735C59.804 692.044 63.6874 670.829 71.5027 647.138C79.2695 623.446 88.9294 598.493 100.482 572.326C112.035 546.159 124.656 519.021 138.345 490.96C152.034 462.9 164.655 434.84 176.208 406.779C187.713 378.719 197.373 351.289 205.188 324.491C212.955 297.693 216.887 272.108 216.887 247.786C216.887 208.511 203.926 177.053 178.101 153.313C152.228 129.622 116.841 117.776 71.9881 117.776C62.037 117.776 52.9596 118.407 44.853 119.669C36.7465 120.932 29.271 122.145 22.4265 123.408C31.1641 100.348 43.6395 79.7635 59.8526 61.7038C74.1725 46.1201 93.3467 31.9442 117.375 19.1277C141.355 6.40826 172.082 0 209.46 0C246.255 0 276.642 7.96178 300.622 23.8368C324.602 39.7118 343.631 59.3735 357.659 82.7734C371.688 106.173 381.493 130.932 387.124 157.1C392.755 183.267 395.522 207.006 395.522 228.173C395.522 259.972 388.823 294.44 375.426 331.531C362.028 368.621 346.106 405.711 327.757 442.801C309.36 479.892 290.331 515.622 270.72 549.897C251.06 584.171 235.333 614.611 223.488 641.069C211.644 667.576 205.382 688.743 204.8 704.666C204.169 720.541 213.537 728.503 232.857 728.503C240.964 728.503 252.954 722.774 268.875 711.269C284.749 699.763 302.224 684.373 321.253 665.1C340.281 645.827 359.892 623.446 380.183 597.91C400.425 572.423 419.599 545.673 437.705 517.661C447.657 492.805 458.142 469.599 469.015 448.141C479.937 426.684 491.781 408.041 504.548 392.166C517.315 376.291 531.489 363.863 547.12 354.833C562.605 345.852 580.08 341.337 599.4 341.337Z" fill="black" fill-opacity="0.05"/>
<path d="M1104.33 378.767C1104.33 392.506 1100.88 406.197 1094.04 419.936C1087.15 433.674 1079.09 446.297 1069.72 457.803C1060.35 469.357 1050.55 479.795 1040.25 489.116C1029.96 498.437 1021.71 505.962 1015.5 511.545C1014.24 506.544 1013.75 501.592 1014.09 496.592C1014.38 491.592 1014.58 486.931 1014.58 482.562C1014.58 478.192 1014.87 473.823 1015.5 469.454C1012.39 475.717 1010.01 482.076 1008.46 488.63C1006.91 495.184 1005.5 501.592 1004.24 507.806C1002.97 514.7 1002.39 521.837 1002.39 529.313C1002.39 541.79 1004.24 554.703 1007.97 568.102C1011.71 581.501 1015.6 595.871 1019.67 611.115C1023.7 626.408 1027.63 642.768 1031.37 660.197C1035.11 677.674 1037 696.656 1037 717.24C1037 741.562 1032.15 763.7 1022.49 783.653C1012.83 803.606 999.965 820.938 983.897 835.55C967.878 850.212 949.141 861.426 927.782 869.194C906.424 876.961 884.191 880.894 861.134 880.894C831.232 880.894 807.349 875.408 789.583 864.533C771.816 853.658 759.05 839.92 751.234 823.365C743.467 806.859 739.681 789.09 740.021 770.06C740.361 751.029 743.467 733.261 749.39 716.755C755.312 700.249 763.273 686.51 773.224 675.586C783.224 664.663 793.806 659.226 805.019 659.226C808.126 659.226 809.242 662.187 808.271 668.11C807.349 674.033 807.495 680.732 808.757 688.209C810.019 695.685 813.902 702.385 820.455 708.307C827.009 714.23 839.63 717.192 858.318 717.192C870.794 717.192 880.891 715.153 888.706 711.123C896.473 707.094 902.735 701.608 907.395 694.763C912.055 687.917 915.161 680.101 916.763 671.363C918.317 662.624 919.093 653.594 919.093 644.225C918.462 623.058 913.802 598.396 905.065 570.336L901.327 578.734C897.589 584.997 893.366 588.735 888.706 589.949C884.046 591.211 879.968 590.725 876.57 588.541C873.124 586.356 870.648 583.104 869.095 578.734C867.541 574.365 868.318 569.704 871.425 564.704C874.532 559.704 878.415 553.15 883.124 545.042C887.784 536.935 892.298 528.682 896.667 520.283C901.036 511.884 904.919 504.408 908.365 497.854C911.763 491.3 913.802 487.077 914.433 485.232C916.909 475.862 921.423 463.094 927.88 446.879C934.336 430.665 943.316 414.595 954.675 398.72C966.082 382.845 980.305 368.961 997.343 357.115C1014.38 345.27 1035.06 339.347 1059.38 339.347C1076.22 339.347 1087.92 343.57 1094.43 351.969C1101.03 360.513 1104.33 369.398 1104.33 378.767Z" fill="black" fill-opacity="0.05"/>
<path d="M1772.67 564.85C1777.04 556.742 1781.56 551.596 1786.22 549.411C1790.88 547.227 1795.1 547.081 1798.84 548.926C1802.58 550.771 1804.91 554.412 1805.88 559.704C1806.8 564.995 1805.73 571.403 1802.62 578.88C1795.15 595.095 1786.12 613.785 1775.49 635.001C1764.91 656.216 1753.06 678.014 1739.96 700.443C1726.85 722.872 1712.82 744.718 1697.87 765.885C1682.92 787.1 1667.14 806.082 1650.64 822.928C1634.13 839.774 1617.1 853.319 1599.67 863.611C1582.19 873.903 1564.43 879.049 1546.37 879.049C1530.16 879.049 1516.42 875.165 1505.21 867.349C1493.99 859.533 1484.96 849.92 1478.07 838.366C1471.18 826.812 1466.23 814.189 1463.12 800.499C1460.01 786.809 1458.46 773.992 1458.46 762.146C1458.46 745.3 1461.28 726.464 1466.86 705.589C1472.49 684.713 1479.33 663.498 1487.44 641.992C1495.55 620.485 1504.09 599.755 1513.17 579.802C1522.2 559.849 1530.16 541.935 1537 526.012C1543.85 510.137 1548.7 497.466 1551.52 488.145C1554.33 478.775 1553.55 474.114 1549.19 474.114C1540.45 474.114 1528.94 480.183 1514.57 492.368C1500.21 504.505 1485.74 519.798 1471.08 538.197C1456.42 556.597 1442.54 576.55 1429.48 598.056C1416.42 619.563 1407.05 640.001 1401.42 659.323C1394.53 685.49 1389.29 709.667 1385.55 731.804C1381.81 753.942 1379.92 773.409 1379.92 790.255C1379.92 802.732 1380.99 812.684 1383.17 820.161C1385.36 827.637 1387.98 833.56 1391.13 837.929C1394.87 844.823 1394.24 850.066 1389.29 853.804C1384.29 857.542 1377.73 861.135 1369.63 864.582C1361.52 868.028 1351.23 869.728 1338.75 869.728C1327.54 869.728 1316.47 867.252 1305.55 862.251C1294.63 857.251 1284.97 849.775 1276.57 839.822C1268.17 829.87 1261.48 817.393 1256.48 802.392C1251.48 787.44 1249 769.963 1249 750.01C1249 720.687 1255.55 685.005 1268.66 642.914C1281.77 600.823 1298.42 556.888 1318.71 511.059C1339 465.23 1361.28 419.741 1385.55 374.495C1409.87 329.297 1433.22 288.615 1455.69 252.447C1478.12 216.279 1498.26 187.005 1516.03 164.527C1533.8 142.05 1546.08 130.835 1552.97 130.835C1569.82 130.835 1578.21 139.234 1578.21 156.08C1578.21 158.556 1574.48 169.479 1567 188.801C1559.52 208.123 1549.86 232.931 1538.02 263.127C1526.18 293.372 1512.92 327.647 1498.26 365.999C1483.6 404.352 1469.43 443.772 1455.69 484.309C1461.32 478.678 1470.21 470.91 1482.34 460.909C1494.48 450.957 1508.22 440.956 1523.51 431.004C1538.8 421.052 1555.3 412.459 1573.07 405.274C1590.83 398.089 1608.75 394.497 1626.85 394.497C1643.07 394.497 1657.87 400.128 1671.27 411.343C1684.67 422.557 1691.37 437.218 1691.37 455.278C1691.37 464.648 1688.11 477.561 1681.56 494.067C1675.01 510.573 1667.19 528.342 1658.16 547.372C1649.13 566.403 1640.06 585.725 1631.03 605.338C1622 625 1614.67 642.768 1609.04 658.643C1603.41 674.518 1600.93 687.626 1601.56 697.918C1602.19 708.21 1607.78 713.356 1618.41 713.356C1627.78 713.356 1638.5 710.104 1650.69 703.55C1662.82 696.996 1675.78 687.48 1689.47 675.004C1703.16 662.527 1717.19 646.943 1731.56 628.253C1745.83 609.756 1759.57 588.589 1772.67 564.85Z" fill="black" fill-opacity="0.05"/>
<path d="M1817.38 524.458C1812.92 524.458 1810.01 521.351 1808.65 515.186C1807.29 509.02 1807.09 501.204 1808.11 491.786C1809.13 482.368 1811.27 472.221 1814.52 461.444C1817.77 450.666 1821.9 440.52 1826.85 431.101C1831.8 421.683 1837.48 413.867 1843.84 407.702C1850.2 401.536 1856.95 398.429 1864.13 398.429C1878.89 398.429 1888.55 401.536 1893.21 407.702C1897.82 413.867 1899.18 421.683 1897.33 431.101C1895.44 440.52 1890.97 450.666 1883.98 461.444C1876.95 472.221 1869.23 482.368 1860.83 491.786C1852.43 501.204 1844.18 509.02 1836.17 515.186C1828.11 521.4 1821.85 524.458 1817.38 524.458Z" fill="black" fill-opacity="0.05"/>
</svg>
