<svg width="129" height="104" viewBox="0 0 129 104" fill="none" xmlns="http://www.w3.org/2000/svg">
<g clip-path="url(#clip0_22_477)">
<path d="M77.2369 38.5114C77.2369 39.6989 76.9418 40.8838 76.3516 42.0714C75.7589 43.2589 75.0651 44.3527 74.2601 45.3475C73.4551 46.3475 72.6112 47.2486 71.7259 48.0559C70.8406 48.8632 70.1314 49.5117 69.5981 49.996C69.4894 49.5637 69.448 49.134 69.4765 48.7017C69.5024 48.2694 69.5179 47.8658 69.5179 47.4882C69.5179 47.1106 69.5438 46.7329 69.5981 46.3553C69.3315 46.897 69.127 47.4465 68.9924 48.0142C68.8578 48.5819 68.7387 49.134 68.63 49.6731C68.5213 50.2695 68.4721 50.8867 68.4721 51.5325C68.4721 52.6107 68.63 53.7279 68.951 54.8868C69.272 56.0457 69.6059 57.2879 69.9579 58.6082C70.3048 59.9312 70.6413 61.3453 70.9649 62.8531C71.2859 64.3636 71.4489 66.0069 71.4489 67.7881C71.4489 69.8924 71.0322 71.8065 70.2013 73.5331C69.3703 75.2597 68.265 76.7571 66.8828 78.0228C65.5057 79.291 63.8956 80.2598 62.0577 80.9317C60.2199 81.6036 58.3095 81.9448 56.3267 81.9448C53.7563 81.9448 51.7035 81.4708 50.1737 80.5307C48.6439 79.5905 47.5489 78.403 46.8759 76.9707C46.2081 75.5436 45.8819 74.0071 45.913 72.3612C45.9415 70.7153 46.2081 69.1788 46.718 67.7517C47.228 66.3246 47.9113 65.137 48.7681 64.1917C49.6275 63.2464 50.5387 62.7776 51.5016 62.7776C51.7683 62.7776 51.864 63.0328 51.7812 63.5459C51.701 64.0589 51.7139 64.637 51.8226 65.2855C51.9313 65.9313 52.2653 66.5121 52.8296 67.0251C53.3939 67.5381 54.4785 67.7934 56.0859 67.7934C57.1576 67.7934 58.0274 67.6163 58.6978 67.2673C59.3656 66.9183 59.904 66.4444 60.3053 65.8532C60.7065 65.262 60.9731 64.5849 61.1103 63.8297C61.2449 63.0745 61.3096 62.2932 61.3096 61.4833C61.2553 59.6525 60.854 57.5197 60.1034 55.0925L59.7824 55.8191C59.4614 56.3608 59.099 56.6837 58.6978 56.7879C58.2966 56.8973 57.9471 56.8556 57.6546 56.6655C57.3595 56.4754 57.1447 56.1941 57.0126 55.8165C56.878 55.4389 56.9453 55.0352 57.212 54.6029C57.4786 54.1706 57.8125 53.6029 58.2189 52.9024C58.6201 52.2018 59.0084 51.4883 59.3838 50.7617C59.7591 50.0351 60.093 49.3893 60.3907 48.8215C60.6832 48.2538 60.8592 47.8892 60.9136 47.7304C61.1258 46.9204 61.5141 45.8162 62.0707 44.4126C62.6272 43.0089 63.3986 41.6208 64.3745 40.2484C65.3555 38.876 66.5773 37.6754 68.0424 36.6493C69.5075 35.6259 71.2859 35.1129 73.3774 35.1129C74.8244 35.1129 75.8313 35.4774 76.3905 36.204C76.9522 36.9332 77.2369 37.7015 77.2369 38.5114Z" fill="#FCA311"/>
<path d="M118.322 54.6055C118.698 53.905 119.086 53.4597 119.487 53.2696C119.888 53.0795 120.251 53.069 120.572 53.2279C120.893 53.3868 121.095 53.7019 121.177 54.1602C121.258 54.6186 121.164 55.1733 120.898 55.8191C120.256 57.2228 119.479 58.8374 118.566 60.6734C117.657 62.5094 116.637 64.3948 115.511 66.3324C114.385 68.2725 113.179 70.1606 111.892 71.9914C110.606 73.8274 109.249 75.468 107.831 76.9264C106.412 78.3822 104.947 79.5541 103.448 80.4447C101.947 81.3354 100.417 81.7807 98.8668 81.7807C97.4715 81.7807 96.2912 81.4448 95.3282 80.7677C94.3653 80.0906 93.5887 79.2598 92.996 78.2598C92.4032 77.2598 91.9787 76.1686 91.7095 74.9837C91.4428 73.7987 91.3082 72.6919 91.3082 71.6659C91.3082 70.2101 91.5515 68.5798 92.0304 66.7751C92.5145 64.9704 93.1021 63.1344 93.801 61.275C94.4973 59.4156 95.2325 57.6212 96.0142 55.8972C96.7908 54.1706 97.4741 52.6211 98.0643 51.2461C98.6519 49.8736 99.0713 48.7773 99.312 47.97C99.5553 47.16 99.488 46.7564 99.1127 46.7564C98.362 46.7564 97.3732 47.2824 96.1359 48.3345C94.9011 49.3841 93.656 50.707 92.3954 52.2982C91.1348 53.8894 89.9415 55.616 88.818 57.4754C87.6946 59.3348 86.8896 61.1031 86.4055 62.775C85.8127 65.0381 85.3623 67.1293 85.0414 69.0434C84.7204 70.9575 84.5573 72.6425 84.5573 74.0982C84.5573 75.1764 84.6479 76.0384 84.8369 76.6842C85.0258 77.3301 85.251 77.8431 85.5202 78.2207C85.8412 78.8171 85.7869 79.2702 85.3623 79.5931C84.9326 79.9161 84.3683 80.226 83.672 80.5255C82.9757 80.8223 82.0904 80.9708 81.0188 80.9708C80.0558 80.9708 79.1032 80.7572 78.1636 80.3249C77.224 79.8926 76.393 79.2468 75.6708 78.3848C74.9486 77.5228 74.374 76.4446 73.9417 75.1477C73.512 73.8534 73.2997 72.343 73.2997 70.6164C73.2997 68.0798 73.864 64.9938 74.9901 61.3531C76.1161 57.7124 77.5475 53.9128 79.2922 49.9492C81.0369 45.9855 82.9524 42.0505 85.0388 38.1364C87.1303 34.2274 89.1364 30.7091 91.0701 27.5814C92.9985 24.4537 94.7303 21.9224 96.2575 19.9771C97.7848 18.0317 98.8409 17.0629 99.4337 17.0629C100.881 17.0629 101.603 17.7895 101.603 19.2453C101.603 19.4588 101.282 20.4042 100.64 22.0761C99.998 23.748 99.167 25.8939 98.1472 28.5033C97.1299 31.118 95.9883 34.0842 94.7277 37.402C93.4671 40.7198 92.2479 44.1287 91.0675 47.634C91.5515 47.147 92.3152 46.4751 93.3584 45.6105C94.4015 44.7485 95.5819 43.8839 96.8969 43.0245C98.2119 42.1625 99.6304 41.4203 101.158 40.7979C102.685 40.1755 104.225 39.8656 105.781 39.8656C107.176 39.8656 108.447 40.3526 109.599 41.3214C110.751 42.2901 111.328 43.5584 111.328 45.1209C111.328 45.9308 111.048 47.0481 110.484 48.4752C109.92 49.9023 109.249 51.4388 108.473 53.0847C107.696 54.7305 106.917 56.4025 106.141 58.0978C105.364 59.7984 104.735 61.3349 104.251 62.7073C103.767 64.0797 103.555 65.2152 103.609 66.1032C103.663 66.9939 104.142 67.4392 105.056 67.4392C105.861 67.4392 106.785 67.1579 107.831 66.5902C108.874 66.0225 109.99 65.1996 111.165 64.1214C112.343 63.0433 113.549 61.6943 114.784 60.077C116.013 58.4885 117.196 56.6577 118.322 54.6055Z" fill="#FCA311"/>
<path d="M12.2438 51.2773L12.1325 51.2487C11.3404 51.0403 11.4776 50.2669 11.6355 49.371C11.8193 48.3189 12.1299 46.5611 12.0419 44.1834C11.9461 41.6 11.387 39.1286 10.4681 37.2275C10.0539 36.3759 9.5569 35.5556 8.99001 34.7925L7.41359 32.6675L9.88306 33.592C10.9677 33.9982 12.5415 34.8186 13.8875 36.4228C15.5442 38.3968 15.9946 40.5583 16.1137 41.6703L16.1266 41.7927L16.1007 41.9125C16.0541 42.1417 15.9868 42.4386 15.904 42.7849C15.464 44.6339 14.866 46.6496 14.2629 48.3111C13.2585 51.0716 12.8676 51.2747 12.3448 51.2747C12.3448 51.2773 12.2438 51.2773 12.2438 51.2773Z" fill="#FCA311"/>
<path d="M15.1507 42.6052C15.231 42.2693 15.2957 41.9802 15.3423 41.7562C15.2543 40.9411 14.9178 38.8603 13.2947 36.928C11.9487 35.3264 10.3826 34.6154 9.61125 34.3264C10.0461 34.9123 10.6234 35.7717 11.1644 36.8863C11.5371 37.6572 12.6683 40.1546 12.8159 44.1547C12.9608 48.0663 12.0548 50.4205 12.3318 50.4934C12.689 50.5898 14.193 46.6418 15.1507 42.6052Z" fill="#FCA311"/>
<path d="M16.0515 104C14.4751 104 12.7382 103.674 10.8926 103.029C9.04178 102.378 7.29969 101.411 5.71809 100.154C4.12096 98.8827 2.75939 97.3019 1.6722 95.4477C0.561714 93.5544 0 91.3799 0 88.9866C0 87.8433 0.144958 86.8173 0.432287 85.937C0.546182 85.4865 0.691141 85.049 0.864573 84.6401L1.32275 83.5464L2.14072 84.4032C3.40652 85.7287 4.84575 86.7756 6.41441 87.5126C7.96494 88.2418 9.77433 88.6116 11.796 88.6116C14.7314 88.6116 17.3303 87.8538 19.5202 86.3615C21.7645 84.8302 23.7499 82.7911 25.4221 80.3041C27.1331 77.7598 28.6629 74.8404 29.9701 71.6268C30.7907 69.6163 31.5906 67.5538 32.362 65.4626C29.9624 68.0251 27.4567 70.2778 24.8733 72.1867C21.2545 74.8613 17.7056 76.4186 14.3224 76.8196C13.7659 76.9316 13.2663 76.9863 12.8366 76.9863C11.9901 76.9863 11.1152 76.8196 10.2351 76.4915C9.33169 76.1608 8.47748 75.5956 7.70609 74.8144C6.93212 74.0357 6.3031 73.0044 5.83716 71.744C5.37899 70.507 5.14602 68.9887 5.14602 67.2256C5.14602 65.5277 5.49806 63.5953 6.19179 61.4807C6.86481 59.4103 7.71386 57.2098 8.71044 54.9389C9.7148 52.6498 10.8149 50.2721 11.9798 47.8762C13.1394 45.4855 14.2292 43.0506 15.2155 40.639C16.1887 38.2484 17.0197 35.8811 17.6797 33.5998C18.3269 31.3523 18.6556 29.1934 18.6556 27.1856C18.6556 23.9928 17.6461 21.5084 15.5727 19.589C13.5096 17.6879 10.6156 16.7218 6.97353 16.7218C6.15814 16.7218 5.41523 16.7739 4.76033 16.8754C4.01483 16.9926 3.40652 17.0916 2.85257 17.1957L1.49877 17.4484L1.988 16.1514C2.78268 14.0394 3.30816 12.7373 4.57137 10.3284C5.4437 8.66949 6.14779 7.41946 8.22898 5.09648C10.3982 2.67715 14.3535 0 19.2432 0C22.0854 0 24.5549 0.223964 27.2625 1.72921C29.0176 2.70319 32.7942 5.17982 34.8418 9.62003C36.0299 12.1956 37.1533 14.6071 37.5986 16.6905C38.0826 18.9536 38.357 20.326 38.357 22.2453C38.357 25.3262 37.8419 28.1986 36.734 31.282C35.8875 33.6415 33.5682 37.9411 29.6466 44.4282C28.0624 47.6392 26.4109 50.7591 24.7335 53.7019C23.0846 56.5952 21.7282 59.2228 20.7057 61.5198C19.7325 63.7151 19.2122 65.4678 19.1656 66.7308C19.1423 67.3298 19.3364 67.5329 19.4011 67.6006C19.6393 67.8507 20.1233 67.9835 20.8015 67.9835C21.0992 67.9835 21.8395 67.809 23.4418 66.6423C24.7723 65.6709 26.2556 64.3558 27.8475 62.7333C29.4473 61.1031 31.1324 59.1708 32.859 56.9858C34.5545 54.8399 36.1904 52.5456 37.7202 50.1705C38.5615 48.0611 39.4675 46.0428 40.4123 44.1652C41.3727 42.2693 42.4288 40.5948 43.5548 39.1859C44.7067 37.7457 46.0113 36.5973 47.4324 35.7691C48.8743 34.9254 50.5154 34.4957 52.3118 34.4957C54.0099 34.4957 55.3586 34.8212 56.3189 35.4618C57.2353 36.0764 57.9471 36.7848 58.4363 37.5686C58.9799 38.4645 59.3139 39.4828 59.4355 40.6078L59.5287 41.4724H58.6641C57.4967 41.4724 56.3733 42.2563 55.3249 43.8006C54.1601 45.522 53.0108 47.8475 51.9106 50.72C50.795 53.6315 49.6224 56.9936 48.4264 60.7099C47.2098 64.4938 45.8949 68.3663 44.5203 72.2179C43.107 76.1738 41.5306 80.0593 39.8325 83.7651C38.0982 87.5517 36.0791 90.9736 33.8348 93.9425C31.5673 96.9425 28.9554 99.3879 26.0718 101.208C23.1493 103.062 19.7791 104 16.0515 104Z" fill="#FCA311"/>
<path d="M15.9679 42.7979C16.0623 42.4655 15.913 42.2207 15.9679 41.999C15.8643 41.1924 15.2458 38.4866 13.3355 36.5744C11.7512 34.9896 9.90792 34.286 9 34C9.51185 34.5798 10.1913 35.4302 10.828 36.5332C11.2668 37.296 12.5982 39.7674 12.7718 43.7256C12.9425 47.5963 11.8761 49.9259 12.2021 49.9981C12.6226 50.0909 14.8406 46.7923 15.9679 42.7979Z" fill="#FCA311"/>
<path d="M52.3119 35.2743C53.865 35.2743 55.0583 35.5556 55.8892 36.1103C56.7201 36.6676 57.3492 37.2952 57.7789 37.9827C58.2629 38.7796 58.5554 39.6833 58.6641 40.6911C57.2171 40.6911 55.8892 41.5818 54.683 43.3604C53.4767 45.1417 52.3119 47.5012 51.1858 50.4387C50.0598 53.3789 48.895 56.7202 47.6887 60.4703C46.4825 64.2203 45.1856 68.046 43.7904 71.9549C42.3951 75.8639 40.8446 79.6947 39.1284 83.4396C37.4122 87.1845 35.4423 90.5309 33.2188 93.4711C30.9952 96.4113 28.474 98.7707 25.6602 100.549C22.8465 102.331 19.6419 103.219 16.0516 103.219C14.5502 103.219 12.9168 102.909 11.1463 102.292C9.3757 101.669 7.7268 100.755 6.19956 99.5415C4.67232 98.328 3.38582 96.8331 2.34005 95.0518C1.29945 93.2732 0.776566 91.2497 0.776566 88.9866C0.776566 87.9084 0.91117 86.9631 1.17779 86.1558C1.28651 85.7235 1.42111 85.3198 1.57901 84.9422C2.91988 86.3459 4.42123 87.4371 6.08308 88.2183C7.74492 88.9996 9.6475 89.3903 11.7934 89.3903C14.9022 89.3903 17.6228 88.5934 19.9525 87.0048C22.2848 85.4136 24.3219 83.3276 26.0614 80.7364C27.8009 78.1504 29.3463 75.2102 30.6846 71.9185C32.0254 68.6319 33.2835 65.2855 34.4613 61.887C31.2981 65.7152 27.9511 68.9366 24.41 71.5539C20.8714 74.1685 17.4701 75.6633 14.1982 76.0436C13.6597 76.1529 13.2042 76.2024 12.834 76.2024C12.0833 76.2024 11.3068 76.0566 10.5017 75.7571C9.69668 75.4628 8.946 74.9628 8.25228 74.2623C7.55596 73.5617 6.99166 72.632 6.56196 71.4705C6.13226 70.3116 5.92 68.8976 5.92 67.2256C5.92 65.6084 6.25392 63.775 6.92694 61.7255C7.59479 59.676 8.42571 57.5171 9.41971 55.254C10.4137 52.9909 11.4983 50.6445 12.6761 48.2173C13.8539 45.7902 14.9385 43.3631 15.9325 40.9359C16.9213 38.5088 17.7522 36.1363 18.4252 33.8185C19.0931 31.5008 19.4322 29.2872 19.4322 27.1856C19.4322 23.7896 18.3191 21.0682 16.0981 19.0135C13.8746 16.964 10.8305 15.9405 6.97354 15.9405C6.11673 15.9405 5.33758 15.9952 4.64126 16.1046C3.94494 16.2139 3.30039 16.3181 2.7128 16.4275C3.46347 14.4326 4.00707 13.193 5.38158 11.1357C6.61632 9.31792 7.5016 8.02623 9.69927 6.28139C12.029 4.51832 14.1283 3.15631 19.2821 3.15631C22.4453 3.15631 24.9691 3.79695 27.2781 4.685C29.4628 5.52616 32.9444 8.44551 34.1506 10.469C35.3569 12.4925 36.3535 14.5889 36.8375 16.852C37.3216 19.115 37.5779 20.412 37.5779 22.2427C37.5779 24.9928 37.1534 27.8054 36.0014 31.0138C34.8495 34.2222 30.9667 40.7354 28.9632 44.048C27.3816 47.2564 25.7456 50.3476 24.0579 53.3112C22.3676 56.2748 21.0164 58.9077 19.9965 61.1968C18.9792 63.4886 18.4408 65.3193 18.389 66.697C18.3346 68.0694 19.1397 68.7595 20.8015 68.7595C21.4978 68.7595 22.5307 68.2647 23.8974 67.2699C25.2616 66.2751 26.7655 64.9443 28.4015 63.2776C30.0374 61.6109 31.7226 59.676 33.4673 57.4676C35.2068 55.2644 36.8557 52.9492 38.414 50.5273C39.2708 48.3762 40.1716 46.3709 41.1061 44.5141C42.0457 42.6573 43.063 41.0453 44.1605 39.6729C45.2581 38.3004 46.4773 37.2249 47.8207 36.4436C49.1487 35.6649 50.65 35.2743 52.3119 35.2743Z" fill="#FCA311"/>
<path d="M19.1552 24.4693C19.1552 24.4693 19.528 17.6619 16.9834 16.7113C16.9834 16.7113 19.9602 17.0264 22.73 19.6463C22.73 19.6463 19.5098 10.2893 13.7866 9.07312C13.7866 9.07312 22.8102 6.92984 28.2306 13.8232C28.2306 13.8232 28.0494 9.01843 25.026 6.07825C25.026 6.07825 30.8244 6.82566 35.4242 12.844C35.4242 12.844 33.7468 5.88293 26.5196 2.27086C20.4003 -0.791714 8.43088 -1.2787 2.62737 16.4535C2.62737 16.4535 15.2802 12.7659 19.1552 24.4693Z" fill="white"/>
<path d="M122.058 51.9857C121.674 51.9857 121.423 51.7174 121.307 51.1836C121.19 50.6497 121.172 49.9752 121.26 49.1601C121.348 48.345 121.532 47.4673 121.812 46.535C122.091 45.6027 122.446 44.7251 122.873 43.9099C123.297 43.0948 123.787 42.4203 124.333 41.8865C124.879 41.3526 125.459 41.0844 126.078 41.0844C127.346 41.0844 128.177 41.3526 128.578 41.8865C128.974 42.4203 129.091 43.0948 128.933 43.9099C128.77 44.7251 128.387 45.6027 127.786 46.535C127.18 47.4673 126.518 48.345 125.795 49.1601C125.073 49.9752 124.364 50.6497 123.675 51.1836C122.979 51.7226 122.441 51.9857 122.058 51.9857Z" fill="#070001"/>
</g>
<defs>
<clipPath id="clip0_22_477">
<rect width="129" height="104" fill="white"/>
</clipPath>
</defs>
</svg>
